<mxfile host="app.diagrams.net" modified="2021-02-01T23:52:50.800Z" agent="5.0 (Macintosh; Intel Mac OS X 10_15_6) AppleWebKit/605.1.15 (KHTML, like Gecko) Version/14.0.1 Safari/605.1.15" etag="1yMj5G30yQITtDEkc8sD" version="14.2.7" type="github">
  <diagram id="yd61wOOSHPwWUXzALppi" name="Page-1">
    <mxGraphModel dx="1796" dy="533" grid="1" gridSize="10" guides="1" tooltips="1" connect="1" arrows="1" fold="1" page="1" pageScale="1" pageWidth="850" pageHeight="1100" math="0" shadow="0">
      <root>
        <mxCell id="0" />
        <mxCell id="1" parent="0" />
        <mxCell id="UuBZATNRduBAJZNG62qD-8" style="edgeStyle=orthogonalEdgeStyle;rounded=0;orthogonalLoop=1;jettySize=auto;html=1;exitX=1;exitY=0.5;exitDx=0;exitDy=0;fontColor=#FFFFFF;" parent="1" source="UuBZATNRduBAJZNG62qD-1" target="UuBZATNRduBAJZNG62qD-6" edge="1">
          <mxGeometry relative="1" as="geometry" />
        </mxCell>
        <mxCell id="UuBZATNRduBAJZNG62qD-1" value="Open Website" style="ellipse;whiteSpace=wrap;html=1;aspect=fixed;fillColor=#000000;fontColor=#FFFFFF;" parent="1" vertex="1">
          <mxGeometry x="20" y="70" width="70" height="70" as="geometry" />
        </mxCell>
        <mxCell id="UuBZATNRduBAJZNG62qD-14" style="edgeStyle=orthogonalEdgeStyle;rounded=0;orthogonalLoop=1;jettySize=auto;html=1;fontColor=#000000;" parent="1" source="UuBZATNRduBAJZNG62qD-6" target="UuBZATNRduBAJZNG62qD-9" edge="1">
          <mxGeometry relative="1" as="geometry" />
        </mxCell>
        <mxCell id="UuBZATNRduBAJZNG62qD-6" value="Find &quot;database&quot; in local storage" style="html=1;whiteSpace=wrap;fillColor=#FFFFFF;" parent="1" vertex="1">
          <mxGeometry x="160" y="80" width="130" height="50" as="geometry" />
        </mxCell>
        <mxCell id="UuBZATNRduBAJZNG62qD-9" value="database found" style="rhombus;whiteSpace=wrap;html=1;" parent="1" vertex="1">
          <mxGeometry x="171.25" y="150" width="107.5" height="60" as="geometry" />
        </mxCell>
        <mxCell id="UuBZATNRduBAJZNG62qD-10" value="no" style="edgeStyle=orthogonalEdgeStyle;html=1;align=left;verticalAlign=bottom;endArrow=open;endSize=8;fontColor=#FFFFFF;exitX=1;exitY=0.5;exitDx=0;exitDy=0;" parent="1" source="UuBZATNRduBAJZNG62qD-9" edge="1">
          <mxGeometry x="-1" relative="1" as="geometry">
            <mxPoint x="320" y="240" as="targetPoint" />
            <mxPoint x="267.5" y="190" as="sourcePoint" />
            <Array as="points">
              <mxPoint x="320" y="180" />
            </Array>
          </mxGeometry>
        </mxCell>
        <mxCell id="UuBZATNRduBAJZNG62qD-12" value="Yes" style="edgeLabel;html=1;align=center;verticalAlign=middle;resizable=0;points=[];fontColor=#000000;" parent="UuBZATNRduBAJZNG62qD-10" vertex="1" connectable="0">
          <mxGeometry x="-0.5238" relative="1" as="geometry">
            <mxPoint x="16.5" y="20" as="offset" />
          </mxGeometry>
        </mxCell>
        <mxCell id="UuBZATNRduBAJZNG62qD-11" value="yes" style="edgeStyle=orthogonalEdgeStyle;html=1;align=left;verticalAlign=top;endArrow=open;endSize=8;fontColor=#FFFFFF;entryX=0.41;entryY=-0.022;entryDx=0;entryDy=0;entryPerimeter=0;" parent="1" target="UuBZATNRduBAJZNG62qD-16" edge="1">
          <mxGeometry x="-1" relative="1" as="geometry">
            <mxPoint x="107.5" y="240" as="targetPoint" />
            <mxPoint x="170" y="180" as="sourcePoint" />
            <Array as="points">
              <mxPoint x="115" y="180" />
            </Array>
          </mxGeometry>
        </mxCell>
        <mxCell id="UuBZATNRduBAJZNG62qD-13" value="No&lt;br&gt;" style="edgeLabel;html=1;align=center;verticalAlign=middle;resizable=0;points=[];fontColor=#000000;" parent="UuBZATNRduBAJZNG62qD-11" vertex="1" connectable="0">
          <mxGeometry x="-0.0933" y="-1" relative="1" as="geometry">
            <mxPoint x="-3.240000000000002" y="21.06" as="offset" />
          </mxGeometry>
        </mxCell>
        <mxCell id="UuBZATNRduBAJZNG62qD-21" style="edgeStyle=orthogonalEdgeStyle;rounded=0;orthogonalLoop=1;jettySize=auto;html=1;exitX=0.5;exitY=1;exitDx=0;exitDy=0;labelBackgroundColor=none;targetPerimeterSpacing=0;strokeColor=#000000;strokeWidth=1;fontColor=#000000;" parent="1" source="UuBZATNRduBAJZNG62qD-15" edge="1">
          <mxGeometry relative="1" as="geometry">
            <mxPoint x="260" y="340" as="targetPoint" />
            <Array as="points">
              <mxPoint x="319" y="300" />
              <mxPoint x="260" y="300" />
            </Array>
          </mxGeometry>
        </mxCell>
        <mxCell id="UuBZATNRduBAJZNG62qD-15" value="Display Task from &quot;database&quot;" style="html=1;strokeColor=#000000;fillColor=#FFFFFF;fontColor=#000000;whiteSpace=wrap;" parent="1" vertex="1">
          <mxGeometry x="260" y="240" width="114" height="50" as="geometry" />
        </mxCell>
        <mxCell id="UuBZATNRduBAJZNG62qD-20" style="edgeStyle=orthogonalEdgeStyle;rounded=0;orthogonalLoop=1;jettySize=auto;html=1;exitX=0.5;exitY=1;exitDx=0;exitDy=0;labelBackgroundColor=none;targetPerimeterSpacing=0;strokeColor=#000000;strokeWidth=1;fontColor=#000000;" parent="1" edge="1">
          <mxGeometry relative="1" as="geometry">
            <mxPoint x="210" y="340" as="targetPoint" />
            <Array as="points">
              <mxPoint x="125" y="300" />
              <mxPoint x="210" y="300" />
            </Array>
            <mxPoint x="125" y="290" as="sourcePoint" />
          </mxGeometry>
        </mxCell>
        <mxCell id="UuBZATNRduBAJZNG62qD-16" value="Display empty list" style="html=1;strokeColor=#000000;fillColor=#FFFFFF;fontColor=#000000;whiteSpace=wrap;" parent="1" vertex="1">
          <mxGeometry x="70" y="240" width="110" height="50" as="geometry" />
        </mxCell>
        <mxCell id="UuBZATNRduBAJZNG62qD-19" value="" style="endArrow=none;html=1;rounded=0;labelBackgroundColor=none;strokeColor=#000000;strokeWidth=9;fontColor=#000000;" parent="1" edge="1">
          <mxGeometry relative="1" as="geometry">
            <mxPoint x="128" y="340" as="sourcePoint" />
            <mxPoint x="343" y="340" as="targetPoint" />
            <Array as="points" />
          </mxGeometry>
        </mxCell>
        <mxCell id="UuBZATNRduBAJZNG62qD-103" style="edgeStyle=orthogonalEdgeStyle;rounded=0;orthogonalLoop=1;jettySize=auto;html=1;entryX=0.5;entryY=0;entryDx=0;entryDy=0;labelBackgroundColor=none;targetPerimeterSpacing=0;strokeColor=#000000;strokeWidth=1;fontColor=#000000;" parent="1" source="UuBZATNRduBAJZNG62qD-22" target="UuBZATNRduBAJZNG62qD-96" edge="1">
          <mxGeometry relative="1" as="geometry">
            <Array as="points">
              <mxPoint x="300" y="480" />
              <mxPoint x="440" y="480" />
            </Array>
          </mxGeometry>
        </mxCell>
        <mxCell id="UuBZATNRduBAJZNG62qD-22" value="Update/Delete Task" style="whiteSpace=wrap;html=1;align=center;strokeColor=#000000;fillColor=#FFFFFF;fontColor=#000000;" parent="1" vertex="1">
          <mxGeometry x="250" y="398" width="100" height="40" as="geometry" />
        </mxCell>
        <mxCell id="UuBZATNRduBAJZNG62qD-68" style="edgeStyle=orthogonalEdgeStyle;rounded=0;orthogonalLoop=1;jettySize=auto;html=1;labelBackgroundColor=none;targetPerimeterSpacing=0;strokeColor=#000000;strokeWidth=1;fontColor=#000000;entryX=0.5;entryY=0;entryDx=0;entryDy=0;" parent="1" source="UuBZATNRduBAJZNG62qD-24" target="UuBZATNRduBAJZNG62qD-65" edge="1">
          <mxGeometry relative="1" as="geometry">
            <mxPoint x="63" y="510" as="targetPoint" />
            <Array as="points">
              <mxPoint x="170" y="480" />
              <mxPoint x="40" y="480" />
            </Array>
          </mxGeometry>
        </mxCell>
        <mxCell id="UuBZATNRduBAJZNG62qD-24" value="Add task" style="whiteSpace=wrap;html=1;align=center;strokeColor=#000000;fillColor=#FFFFFF;fontColor=#000000;" parent="1" vertex="1">
          <mxGeometry x="120" y="398" width="100" height="40" as="geometry" />
        </mxCell>
        <mxCell id="UuBZATNRduBAJZNG62qD-28" value="" style="edgeStyle=segmentEdgeStyle;endArrow=classic;html=1;labelBackgroundColor=none;strokeColor=#000000;strokeWidth=1;fontColor=#000000;" parent="1" edge="1" target="UuBZATNRduBAJZNG62qD-24">
          <mxGeometry width="50" height="50" relative="1" as="geometry">
            <mxPoint x="170" y="340" as="sourcePoint" />
            <mxPoint x="80" y="398" as="targetPoint" />
            <Array as="points" />
          </mxGeometry>
        </mxCell>
        <mxCell id="UuBZATNRduBAJZNG62qD-30" value="" style="edgeStyle=segmentEdgeStyle;endArrow=classic;html=1;labelBackgroundColor=none;strokeColor=#000000;strokeWidth=1;fontColor=#000000;" parent="1" edge="1">
          <mxGeometry width="50" height="50" relative="1" as="geometry">
            <mxPoint x="300" y="340" as="sourcePoint" />
            <mxPoint x="300" y="398" as="targetPoint" />
            <Array as="points">
              <mxPoint x="300" y="398" />
            </Array>
          </mxGeometry>
        </mxCell>
        <mxCell id="UuBZATNRduBAJZNG62qD-50" value="&lt;font color=&quot;#ffffff&quot;&gt;Close Website&lt;/font&gt;" style="ellipse;html=1;shape=endState;fillColor=#000000;strokeColor=#ff0000;fontColor=#000000;whiteSpace=wrap;" parent="1" vertex="1">
          <mxGeometry x="300" y="1230" width="80" height="80" as="geometry" />
        </mxCell>
        <mxCell id="UuBZATNRduBAJZNG62qD-75" value="" style="endArrow=none;html=1;rounded=0;labelBackgroundColor=none;strokeColor=#000000;strokeWidth=9;fontColor=#000000;" parent="1" edge="1">
          <mxGeometry relative="1" as="geometry">
            <mxPoint x="-60" y="723" as="sourcePoint" />
            <mxPoint x="155" y="723" as="targetPoint" />
            <Array as="points" />
          </mxGeometry>
        </mxCell>
        <mxCell id="UuBZATNRduBAJZNG62qD-81" value="" style="edgeStyle=segmentEdgeStyle;endArrow=classic;html=1;labelBackgroundColor=none;strokeColor=#000000;strokeWidth=1;fontColor=#000000;entryX=0;entryY=0.5;entryDx=0;entryDy=0;" parent="1" target="kEZMU26oNeu0ruUVFl1W-4" edge="1">
          <mxGeometry width="50" height="50" relative="1" as="geometry">
            <mxPoint x="40" y="720" as="sourcePoint" />
            <mxPoint x="230" y="870" as="targetPoint" />
            <Array as="points">
              <mxPoint x="40" y="740" />
              <mxPoint x="40" y="860" />
            </Array>
          </mxGeometry>
        </mxCell>
        <mxCell id="UuBZATNRduBAJZNG62qD-105" value="" style="edgeStyle=segmentEdgeStyle;endArrow=classic;html=1;labelBackgroundColor=none;strokeColor=#000000;strokeWidth=1;fontColor=#000000;entryX=1;entryY=0.5;entryDx=0;entryDy=0;" parent="1" edge="1" target="kEZMU26oNeu0ruUVFl1W-4">
          <mxGeometry width="50" height="50" relative="1" as="geometry">
            <mxPoint x="440" y="720" as="sourcePoint" />
            <mxPoint x="350" y="860" as="targetPoint" />
            <Array as="points">
              <mxPoint x="440" y="860" />
            </Array>
          </mxGeometry>
        </mxCell>
        <mxCell id="UuBZATNRduBAJZNG62qD-132" style="edgeStyle=orthogonalEdgeStyle;rounded=0;orthogonalLoop=1;jettySize=auto;html=1;labelBackgroundColor=none;targetPerimeterSpacing=0;strokeColor=#000000;strokeWidth=1;fontColor=#000000;" parent="1" source="UuBZATNRduBAJZNG62qD-127" edge="1">
          <mxGeometry relative="1" as="geometry">
            <mxPoint x="130" y="340" as="targetPoint" />
            <Array as="points">
              <mxPoint x="-170" y="1130" />
              <mxPoint x="-170" y="340" />
            </Array>
          </mxGeometry>
        </mxCell>
        <mxCell id="UuBZATNRduBAJZNG62qD-131" style="edgeStyle=orthogonalEdgeStyle;rounded=0;orthogonalLoop=1;jettySize=auto;html=1;labelBackgroundColor=none;targetPerimeterSpacing=0;strokeColor=#000000;strokeWidth=1;fontColor=#000000;entryX=0.5;entryY=0;entryDx=0;entryDy=0;" parent="1" source="UuBZATNRduBAJZNG62qD-129" target="UuBZATNRduBAJZNG62qD-50" edge="1">
          <mxGeometry relative="1" as="geometry">
            <mxPoint x="415" y="1450" as="targetPoint" />
          </mxGeometry>
        </mxCell>
        <mxCell id="kEZMU26oNeu0ruUVFl1W-2" value="" style="group" parent="1" vertex="1" connectable="0">
          <mxGeometry x="260" y="517" width="345" height="203" as="geometry" />
        </mxCell>
        <mxCell id="UuBZATNRduBAJZNG62qD-96" value="Was Delete button clicked?" style="rhombus;whiteSpace=wrap;html=1;" parent="kEZMU26oNeu0ruUVFl1W-2" vertex="1">
          <mxGeometry x="120" width="120" height="70" as="geometry" />
        </mxCell>
        <mxCell id="UuBZATNRduBAJZNG62qD-97" style="edgeStyle=orthogonalEdgeStyle;rounded=0;orthogonalLoop=1;jettySize=auto;html=1;labelBackgroundColor=none;targetPerimeterSpacing=0;strokeColor=#000000;strokeWidth=1;fontColor=#000000;" parent="kEZMU26oNeu0ruUVFl1W-2" source="UuBZATNRduBAJZNG62qD-98" edge="1">
          <mxGeometry relative="1" as="geometry">
            <mxPoint x="170" y="200" as="targetPoint" />
          </mxGeometry>
        </mxCell>
        <mxCell id="UuBZATNRduBAJZNG62qD-98" value="Update task with checkmark" style="whiteSpace=wrap;html=1;align=center;strokeColor=#000000;fillColor=#FFFFFF;fontColor=#000000;" parent="kEZMU26oNeu0ruUVFl1W-2" vertex="1">
          <mxGeometry y="110" width="100" height="40" as="geometry" />
        </mxCell>
        <mxCell id="UuBZATNRduBAJZNG62qD-92" style="edgeStyle=orthogonalEdgeStyle;rounded=0;orthogonalLoop=1;jettySize=auto;html=1;entryX=0.5;entryY=0;entryDx=0;entryDy=0;labelBackgroundColor=none;targetPerimeterSpacing=0;strokeColor=#000000;strokeWidth=1;fontColor=#000000;" parent="kEZMU26oNeu0ruUVFl1W-2" source="UuBZATNRduBAJZNG62qD-96" target="UuBZATNRduBAJZNG62qD-98" edge="1">
          <mxGeometry relative="1" as="geometry" />
        </mxCell>
        <mxCell id="UuBZATNRduBAJZNG62qD-93" value="No" style="edgeLabel;html=1;align=center;verticalAlign=middle;resizable=0;points=[];fontColor=#000000;" parent="UuBZATNRduBAJZNG62qD-92" vertex="1" connectable="0">
          <mxGeometry x="-0.0637" y="1" relative="1" as="geometry">
            <mxPoint x="2" y="-2" as="offset" />
          </mxGeometry>
        </mxCell>
        <mxCell id="UuBZATNRduBAJZNG62qD-99" style="edgeStyle=orthogonalEdgeStyle;rounded=0;orthogonalLoop=1;jettySize=auto;html=1;exitX=0;exitY=0.5;exitDx=0;exitDy=0;labelBackgroundColor=none;targetPerimeterSpacing=0;strokeColor=#000000;strokeWidth=1;fontColor=#000000;" parent="kEZMU26oNeu0ruUVFl1W-2" source="UuBZATNRduBAJZNG62qD-100" edge="1">
          <mxGeometry relative="1" as="geometry">
            <mxPoint x="190" y="200" as="targetPoint" />
          </mxGeometry>
        </mxCell>
        <mxCell id="UuBZATNRduBAJZNG62qD-100" value="Delete task and update database" style="whiteSpace=wrap;html=1;align=center;strokeColor=#000000;fillColor=#FFFFFF;fontColor=#000000;" parent="kEZMU26oNeu0ruUVFl1W-2" vertex="1">
          <mxGeometry x="245" y="110" width="100" height="40" as="geometry" />
        </mxCell>
        <mxCell id="UuBZATNRduBAJZNG62qD-94" style="edgeStyle=orthogonalEdgeStyle;rounded=0;orthogonalLoop=1;jettySize=auto;html=1;exitX=1;exitY=0.5;exitDx=0;exitDy=0;entryX=0.5;entryY=0;entryDx=0;entryDy=0;labelBackgroundColor=none;targetPerimeterSpacing=0;strokeColor=#000000;strokeWidth=1;fontColor=#000000;" parent="kEZMU26oNeu0ruUVFl1W-2" source="UuBZATNRduBAJZNG62qD-96" target="UuBZATNRduBAJZNG62qD-100" edge="1">
          <mxGeometry relative="1" as="geometry" />
        </mxCell>
        <mxCell id="UuBZATNRduBAJZNG62qD-95" value="Yes" style="edgeLabel;html=1;align=center;verticalAlign=middle;resizable=0;points=[];fontColor=#000000;" parent="UuBZATNRduBAJZNG62qD-94" vertex="1" connectable="0">
          <mxGeometry x="-0.1805" y="-1" relative="1" as="geometry">
            <mxPoint as="offset" />
          </mxGeometry>
        </mxCell>
        <mxCell id="UuBZATNRduBAJZNG62qD-101" value="" style="endArrow=none;html=1;rounded=0;labelBackgroundColor=none;strokeColor=#000000;strokeWidth=9;fontColor=#000000;" parent="kEZMU26oNeu0ruUVFl1W-2" edge="1">
          <mxGeometry relative="1" as="geometry">
            <mxPoint x="72.5" y="203" as="sourcePoint" />
            <mxPoint x="287.5" y="203" as="targetPoint" />
            <Array as="points" />
          </mxGeometry>
        </mxCell>
        <mxCell id="kEZMU26oNeu0ruUVFl1W-5" style="edgeStyle=orthogonalEdgeStyle;rounded=0;orthogonalLoop=1;jettySize=auto;html=1;entryX=0.5;entryY=0;entryDx=0;entryDy=0;" parent="1" source="kEZMU26oNeu0ruUVFl1W-4" target="UuBZATNRduBAJZNG62qD-125" edge="1">
          <mxGeometry relative="1" as="geometry" />
        </mxCell>
        <mxCell id="kEZMU26oNeu0ruUVFl1W-4" value="Read Tasks" style="whiteSpace=wrap;html=1;align=center;strokeColor=#000000;fillColor=#FFFFFF;fontColor=#000000;" parent="1" vertex="1">
          <mxGeometry x="175" y="840" width="100" height="40" as="geometry" />
        </mxCell>
        <mxCell id="_X0d42HbJLa0Vu3q29lL-1" value="" style="group" vertex="1" connectable="0" parent="1">
          <mxGeometry x="-140" y="520" width="345" height="200" as="geometry" />
        </mxCell>
        <mxCell id="UuBZATNRduBAJZNG62qD-65" value="is form filled?" style="rhombus;whiteSpace=wrap;html=1;" parent="_X0d42HbJLa0Vu3q29lL-1" vertex="1">
          <mxGeometry x="120" width="120" height="70" as="geometry" />
        </mxCell>
        <mxCell id="UuBZATNRduBAJZNG62qD-80" style="edgeStyle=orthogonalEdgeStyle;rounded=0;orthogonalLoop=1;jettySize=auto;html=1;labelBackgroundColor=none;targetPerimeterSpacing=0;strokeColor=#000000;strokeWidth=1;fontColor=#000000;" parent="_X0d42HbJLa0Vu3q29lL-1" source="UuBZATNRduBAJZNG62qD-69" edge="1">
          <mxGeometry relative="1" as="geometry">
            <mxPoint x="170" y="200" as="targetPoint" />
          </mxGeometry>
        </mxCell>
        <mxCell id="UuBZATNRduBAJZNG62qD-69" value="request required info" style="whiteSpace=wrap;html=1;align=center;strokeColor=#000000;fillColor=#FFFFFF;fontColor=#000000;" parent="_X0d42HbJLa0Vu3q29lL-1" vertex="1">
          <mxGeometry y="110" width="100" height="40" as="geometry" />
        </mxCell>
        <mxCell id="UuBZATNRduBAJZNG62qD-71" style="edgeStyle=orthogonalEdgeStyle;rounded=0;orthogonalLoop=1;jettySize=auto;html=1;entryX=0.5;entryY=0;entryDx=0;entryDy=0;labelBackgroundColor=none;targetPerimeterSpacing=0;strokeColor=#000000;strokeWidth=1;fontColor=#000000;" parent="_X0d42HbJLa0Vu3q29lL-1" source="UuBZATNRduBAJZNG62qD-65" target="UuBZATNRduBAJZNG62qD-69" edge="1">
          <mxGeometry relative="1" as="geometry" />
        </mxCell>
        <mxCell id="UuBZATNRduBAJZNG62qD-73" value="No" style="edgeLabel;html=1;align=center;verticalAlign=middle;resizable=0;points=[];fontColor=#000000;" parent="UuBZATNRduBAJZNG62qD-71" vertex="1" connectable="0">
          <mxGeometry x="-0.0637" y="1" relative="1" as="geometry">
            <mxPoint x="2" y="-2" as="offset" />
          </mxGeometry>
        </mxCell>
        <mxCell id="UuBZATNRduBAJZNG62qD-78" style="edgeStyle=orthogonalEdgeStyle;rounded=0;orthogonalLoop=1;jettySize=auto;html=1;exitX=0;exitY=0.5;exitDx=0;exitDy=0;labelBackgroundColor=none;targetPerimeterSpacing=0;strokeColor=#000000;strokeWidth=1;fontColor=#000000;" parent="_X0d42HbJLa0Vu3q29lL-1" source="UuBZATNRduBAJZNG62qD-70" edge="1">
          <mxGeometry relative="1" as="geometry">
            <mxPoint x="190" y="200" as="targetPoint" />
          </mxGeometry>
        </mxCell>
        <mxCell id="UuBZATNRduBAJZNG62qD-70" value="push task to &quot;database&quot;" style="whiteSpace=wrap;html=1;align=center;strokeColor=#000000;fillColor=#FFFFFF;fontColor=#000000;" parent="_X0d42HbJLa0Vu3q29lL-1" vertex="1">
          <mxGeometry x="245" y="110" width="100" height="40" as="geometry" />
        </mxCell>
        <mxCell id="UuBZATNRduBAJZNG62qD-72" style="edgeStyle=orthogonalEdgeStyle;rounded=0;orthogonalLoop=1;jettySize=auto;html=1;exitX=1;exitY=0.5;exitDx=0;exitDy=0;entryX=0.5;entryY=0;entryDx=0;entryDy=0;labelBackgroundColor=none;targetPerimeterSpacing=0;strokeColor=#000000;strokeWidth=1;fontColor=#000000;" parent="_X0d42HbJLa0Vu3q29lL-1" source="UuBZATNRduBAJZNG62qD-65" target="UuBZATNRduBAJZNG62qD-70" edge="1">
          <mxGeometry relative="1" as="geometry" />
        </mxCell>
        <mxCell id="UuBZATNRduBAJZNG62qD-74" value="Yes" style="edgeLabel;html=1;align=center;verticalAlign=middle;resizable=0;points=[];fontColor=#000000;" parent="UuBZATNRduBAJZNG62qD-72" vertex="1" connectable="0">
          <mxGeometry x="-0.1805" y="-1" relative="1" as="geometry">
            <mxPoint as="offset" />
          </mxGeometry>
        </mxCell>
        <mxCell id="_X0d42HbJLa0Vu3q29lL-2" value="" style="group" vertex="1" connectable="0" parent="1">
          <mxGeometry x="45" y="1000" width="345" height="150" as="geometry" />
        </mxCell>
        <mxCell id="UuBZATNRduBAJZNG62qD-125" value="Is site closed?" style="rhombus;whiteSpace=wrap;html=1;" parent="_X0d42HbJLa0Vu3q29lL-2" vertex="1">
          <mxGeometry x="120" width="120" height="70" as="geometry" />
        </mxCell>
        <mxCell id="UuBZATNRduBAJZNG62qD-127" value="LOOP" style="whiteSpace=wrap;html=1;align=center;strokeColor=#000000;fillColor=#FFFFFF;fontColor=#000000;" parent="_X0d42HbJLa0Vu3q29lL-2" vertex="1">
          <mxGeometry y="110" width="100" height="40" as="geometry" />
        </mxCell>
        <mxCell id="UuBZATNRduBAJZNG62qD-121" style="edgeStyle=orthogonalEdgeStyle;rounded=0;orthogonalLoop=1;jettySize=auto;html=1;entryX=0.5;entryY=0;entryDx=0;entryDy=0;labelBackgroundColor=none;targetPerimeterSpacing=0;strokeColor=#000000;strokeWidth=1;fontColor=#000000;" parent="_X0d42HbJLa0Vu3q29lL-2" source="UuBZATNRduBAJZNG62qD-125" target="UuBZATNRduBAJZNG62qD-127" edge="1">
          <mxGeometry relative="1" as="geometry" />
        </mxCell>
        <mxCell id="UuBZATNRduBAJZNG62qD-122" value="No" style="edgeLabel;html=1;align=center;verticalAlign=middle;resizable=0;points=[];fontColor=#000000;" parent="UuBZATNRduBAJZNG62qD-121" vertex="1" connectable="0">
          <mxGeometry x="-0.0637" y="1" relative="1" as="geometry">
            <mxPoint x="2" y="-2" as="offset" />
          </mxGeometry>
        </mxCell>
        <mxCell id="UuBZATNRduBAJZNG62qD-129" value="Close webpage" style="whiteSpace=wrap;html=1;align=center;strokeColor=#000000;fillColor=#FFFFFF;fontColor=#000000;" parent="_X0d42HbJLa0Vu3q29lL-2" vertex="1">
          <mxGeometry x="245" y="110" width="100" height="40" as="geometry" />
        </mxCell>
        <mxCell id="UuBZATNRduBAJZNG62qD-123" style="edgeStyle=orthogonalEdgeStyle;rounded=0;orthogonalLoop=1;jettySize=auto;html=1;exitX=1;exitY=0.5;exitDx=0;exitDy=0;entryX=0.5;entryY=0;entryDx=0;entryDy=0;labelBackgroundColor=none;targetPerimeterSpacing=0;strokeColor=#000000;strokeWidth=1;fontColor=#000000;" parent="_X0d42HbJLa0Vu3q29lL-2" source="UuBZATNRduBAJZNG62qD-125" target="UuBZATNRduBAJZNG62qD-129" edge="1">
          <mxGeometry relative="1" as="geometry" />
        </mxCell>
        <mxCell id="UuBZATNRduBAJZNG62qD-124" value="Yes" style="edgeLabel;html=1;align=center;verticalAlign=middle;resizable=0;points=[];fontColor=#000000;" parent="UuBZATNRduBAJZNG62qD-123" vertex="1" connectable="0">
          <mxGeometry x="-0.1805" y="-1" relative="1" as="geometry">
            <mxPoint as="offset" />
          </mxGeometry>
        </mxCell>
      </root>
    </mxGraphModel>
  </diagram>
</mxfile>
